<svg width="1600" height="900" viewBox="0 0 1600 900" fill="none" xmlns="http://www.w3.org/2000/svg">
  <rect width="1600" height="900" fill="#050505"/>
  <rect x="64" y="64" width="1472" height="772" rx="32" fill="#0B0B0B" stroke="#242424"/>
  <g opacity="0.55">
    <path d="M120 150H1480" stroke="#191919"/>
    <path d="M120 208H1480" stroke="#191919"/>
    <path d="M120 266H1480" stroke="#191919"/>
    <path d="M120 324H1480" stroke="#191919"/>
    <path d="M120 382H1480" stroke="#191919"/>
    <path d="M120 440H1480" stroke="#191919"/>
    <path d="M120 498H1480" stroke="#191919"/>
    <path d="M120 556H1480" stroke="#191919"/>
    <path d="M120 614H1480" stroke="#191919"/>
    <path d="M120 672H1480" stroke="#191919"/>
    <path d="M210 120V780" stroke="#151515"/>
    <path d="M380 120V780" stroke="#151515"/>
    <path d="M550 120V780" stroke="#151515"/>
    <path d="M720 120V780" stroke="#151515"/>
    <path d="M890 120V780" stroke="#151515"/>
    <path d="M1060 120V780" stroke="#151515"/>
    <path d="M1230 120V780" stroke="#151515"/>
    <path d="M1400 120V780" stroke="#151515"/>
  </g>
  <text x="128" y="158" fill="#F5F5F5" font-family="Inter, Arial, sans-serif" font-size="44" font-weight="800">outsider</text>
  <text x="1300" y="158" fill="#F9A8D4" font-family="Inter, Arial, sans-serif" font-size="36" font-weight="900">Module 48</text>
  <text x="128" y="240" fill="#FFFFFF" font-family="Inter, Arial, sans-serif" font-size="82" font-weight="900">How to write a subnet thesis without</text>
  <text x="128" y="336" fill="#FFFFFF" font-family="Inter, Arial, sans-serif" font-size="82" font-weight="900">fooling yourself</text>
  <rect x="128" y="650" width="280" height="66" rx="12" fill="#FFFFFF"/>
  <text x="164" y="693" fill="#000000" font-family="Inter, Arial, sans-serif" font-size="27" font-weight="900" letter-spacing="1.5">FIELD SCHOOL</text>
  <rect x="460" y="650" width="270" height="66" rx="12" fill="#111111" stroke="#3A3A3A"/>
  <text x="494" y="693" fill="#F1F1F1" font-family="Inter, Arial, sans-serif" font-size="27" font-weight="800">RESEARCH</text>
  <g transform="translate(1040 318)">
    <circle cx="94" cy="94" r="92" fill="#101010" stroke="#303030"/>
    <path d="M94 28V188" stroke="#F9A8D4" stroke-width="14" stroke-linecap="round"/>
    <path d="M28 94H188" stroke="#FFFFFF" stroke-width="14" stroke-linecap="round"/>
    <circle cx="94" cy="94" r="26" fill="#F9A8D4"/>
    <circle cx="94" cy="28" r="14" fill="#FFFFFF"/>
    <circle cx="188" cy="94" r="14" fill="#FFFFFF"/>
    <circle cx="94" cy="188" r="14" fill="#FFFFFF"/>
    <circle cx="28" cy="94" r="14" fill="#FFFFFF"/>
  </g>
</svg>