<svg width="1200" height="630" viewBox="0 0 1200 630" fill="none" xmlns="http://www.w3.org/2000/svg">
  <rect width="1200" height="630" fill="#050505"/>
  <rect x="42" y="42" width="1116" height="546" rx="36" fill="#0B0B0B" stroke="#242424"/>
  <path d="M42 438H1158" stroke="#1D1D1D"/>
  <path d="M105 132H1095" stroke="#181818"/>
  <path d="M105 192H1095" stroke="#181818"/>
  <path d="M105 252H1095" stroke="#181818"/>
  <path d="M105 312H1095" stroke="#181818"/>
  <path d="M105 372H1095" stroke="#181818"/>
  <path d="M189 88V536" stroke="#151515"/>
  <path d="M309 88V536" stroke="#151515"/>
  <path d="M429 88V536" stroke="#151515"/>
  <path d="M549 88V536" stroke="#151515"/>
  <path d="M669 88V536" stroke="#151515"/>
  <path d="M789 88V536" stroke="#151515"/>
  <path d="M909 88V536" stroke="#151515"/>
  <path d="M1029 88V536" stroke="#151515"/>

  <text x="105" y="122" fill="#F5F5F5" font-family="Inter, Arial, sans-serif" font-size="34" font-weight="800" letter-spacing="0">outsider</text>
  <text x="105" y="224" fill="#FFFFFF" font-family="Inter, Arial, sans-serif" font-size="82" font-weight="900" letter-spacing="0">Babelbit SN59</text>
  <text x="105" y="288" fill="#B8B8B8" font-family="Inter, Arial, sans-serif" font-size="31" font-weight="500" letter-spacing="0">Machine interpretation on Bittensor</text>

  <rect x="105" y="363" width="196" height="54" rx="12" fill="#FFFFFF"/>
  <text x="133" y="399" fill="#000000" font-family="Inter, Arial, sans-serif" font-size="22" font-weight="900" letter-spacing="2">SUBNET 59</text>

  <rect x="332" y="363" width="178" height="54" rx="12" fill="#111111" stroke="#3A3A3A"/>
  <text x="360" y="399" fill="#F1F1F1" font-family="Inter, Arial, sans-serif" font-size="22" font-weight="800" letter-spacing="1.5">BABELBIT</text>

  <g transform="translate(768 126)">
    <rect x="0" y="0" width="286" height="286" rx="28" fill="#101010" stroke="#303030"/>
    <circle cx="57" cy="68" r="18" fill="#FFFFFF"/>
    <circle cx="143" cy="68" r="18" fill="#7DD3FC"/>
    <circle cx="229" cy="68" r="18" fill="#FFFFFF"/>
    <path d="M60 151C88 108 116 108 143 151C170 194 198 194 226 151" stroke="#FFFFFF" stroke-width="16" stroke-linecap="round"/>
    <path d="M60 217H226" stroke="#7DD3FC" stroke-width="16" stroke-linecap="round"/>
  </g>

  <text x="105" y="514" fill="#777777" font-family="Inter, Arial, sans-serif" font-size="25" font-weight="600" letter-spacing="0">TAO Outsider deep dive</text>
</svg>
