<svg width="1200" height="630" viewBox="0 0 1200 630" fill="none" xmlns="http://www.w3.org/2000/svg">
  <rect width="1200" height="630" fill="#050505"/>
  <rect x="42" y="42" width="1116" height="546" rx="36" fill="#0B0B0B" stroke="#242424"/>
  <path d="M110 505C212 438 285 458 362 412C456 355 533 365 617 311C717 247 838 219 1048 190" stroke="#FFFFFF" stroke-width="18" stroke-linecap="round"/>
  <path d="M110 505C212 438 285 458 362 412C456 355 533 365 617 311C717 247 838 219 1048 190" stroke="#7DD3FC" stroke-width="4" stroke-linecap="round"/>

  <text x="105" y="122" fill="#F5F5F5" font-family="Inter, Arial, sans-serif" font-size="34" font-weight="800" letter-spacing="0">outsider</text>
  <text x="105" y="224" fill="#FFFFFF" font-family="Inter, Arial, sans-serif" font-size="82" font-weight="900" letter-spacing="0">Bitcast SN93</text>
  <text x="105" y="288" fill="#B8B8B8" font-family="Inter, Arial, sans-serif" font-size="32" font-weight="500" letter-spacing="0">How to mine TAO through Stitch3</text>

  <rect x="105" y="363" width="190" height="54" rx="12" fill="#FFFFFF"/>
  <text x="132" y="399" fill="#000000" font-family="Inter, Arial, sans-serif" font-size="22" font-weight="900" letter-spacing="2">SUBNET 93</text>

  <rect x="326" y="363" width="168" height="54" rx="12" fill="#111111" stroke="#3A3A3A"/>
  <text x="354" y="399" fill="#F1F1F1" font-family="Inter, Arial, sans-serif" font-size="22" font-weight="800" letter-spacing="1.5">STITCH3</text>

  <g transform="translate(785 214)">
    <rect x="0" y="0" width="272" height="270" rx="26" fill="#101010" stroke="#303030"/>
    <rect x="46" y="48" width="180" height="24" rx="12" fill="#FFFFFF"/>
    <rect x="46" y="104" width="128" height="24" rx="12" fill="#7DD3FC"/>
    <rect x="46" y="160" width="206" height="24" rx="12" fill="#FFFFFF"/>
    <rect x="46" y="216" width="92" height="24" rx="12" fill="#7DD3FC"/>
  </g>

  <text x="105" y="534" fill="#777777" font-family="Inter, Arial, sans-serif" font-size="25" font-weight="600" letter-spacing="0">X ranking playbook for creators</text>
</svg>
